<?xml version="1.0" standalone="no"?>
<!DOCTYPE svg PUBLIC "-//W3C//DTD SVG 20010904//EN"
 "http://www.w3.org/TR/2001/REC-SVG-20010904/DTD/svg10.dtd">
<svg version="1.0" xmlns="http://www.w3.org/2000/svg"
 width="922.000000pt" height="670.000000pt" viewBox="0 0 922.000000 670.000000"
 preserveAspectRatio="xMidYMid meet">

<g transform="translate(0.000000,670.000000) scale(0.100000,-0.100000)"
fill="#000000" stroke="none">
<path d="M2800 6675 c-7 -9 -37 -156 -66 -328 -29 -172 -91 -541 -139 -822
-47 -280 -122 -724 -166 -985 -123 -730 -138 -813 -146 -821 -7 -7 -398 -218
-1738 -939 -259 -139 -480 -261 -492 -272 -38 -35 -37 -62 4 -133 24 -42 48
-70 68 -79 16 -8 419 -177 895 -376 476 -199 971 -406 1100 -460 129 -54 667
-279 1195 -500 528 -221 1163 -487 1411 -591 408 -171 457 -189 509 -189 36 0
68 6 87 17 16 10 112 126 212 258 919 1209 1230 1621 1242 1644 8 14 14 40 14
57 0 16 61 275 136 575 541 2172 734 2955 734 2974 0 12 -6 28 -14 34 -8 7
-103 29 -212 51 -110 21 -337 66 -506 100 -499 97 -898 176 -1220 240 -2363
465 -2851 560 -2872 560 -13 0 -29 -7 -36 -15z m2368 -600 c1252 -251 2285
-458 2295 -461 9 -3 17 -11 17 -19 0 -18 -729 -2948 -735 -2953 -6 -7 -1352
409 -1380 426 -5 3 -21 7 -35 9 -36 3 -100 31 -100 43 0 5 5 12 12 16 8 5 9 2
5 -9 -4 -11 -1 -17 8 -17 16 0 18 9 9 34 -9 24 -29 19 -42 -9 -6 -13 -17 -23
-24 -20 -52 18 -1584 490 -1627 501 -29 8 -57 16 -61 19 -4 2 -146 48 -316
100 -583 181 -758 236 -762 239 -3 4 19 137 122 746 98 579 189 1120 246 1455
62 369 59 355 76 355 8 0 1039 -205 2292 -455z m-2678 -2152 c0 -17 -19 -35
-29 -29 -18 12 -12 36 9 36 11 0 20 -3 20 -7z m190 -75 c0 -14 -5 -18 -16 -14
-9 3 -18 6 -20 6 -2 0 -4 9 -4 19 0 14 5 18 20 14 12 -3 20 -14 20 -25z m90
-18 c11 -7 12 -12 3 -21 -13 -13 -33 -4 -33 17 0 16 9 18 30 4z m93 -32 c7
-27 5 -30 -17 -22 -19 7 -22 44 -2 44 7 0 16 -10 19 -22z m200 -74 c-3 -8 -9
-14 -13 -14 -14 0 -22 20 -16 37 5 12 9 13 21 3 7 -6 11 -18 8 -26z m103 -9
c8 -20 -13 -45 -32 -38 -14 5 -19 34 -7 46 11 12 33 7 39 -8z m102 -32 c2 -7
-3 -13 -12 -13 -9 0 -16 -5 -16 -12 0 -8 -3 -9 -10 -2 -15 15 -1 46 18 42 8
-2 17 -9 20 -15z m88 -28 c7 -17 -14 -48 -26 -40 -10 6 0 55 11 55 6 0 12 -7
15 -15z m102 -24 c19 -11 11 -45 -11 -49 -19 -4 -32 20 -23 43 6 17 15 19 34
6z m112 -42 c0 -4 -9 -13 -20 -19 -17 -9 -20 -8 -20 8 0 10 3 21 6 25 8 8 34
-3 34 -14z m-40 -49 c8 -5 11 -10 5 -10 -5 0 -17 5 -25 10 -8 5 -10 10 -5 10
6 0 17 -5 25 -10z m2704 -791 c-3 -6 0 -15 7 -20 11 -7 10 -9 -3 -9 -11 0 -18
8 -18 20 0 11 5 20 11 20 5 0 7 -5 3 -11z m66 -23 c0 -3 -4 -8 -10 -11 -5 -3
-10 -1 -10 4 0 6 5 11 10 11 6 0 10 -2 10 -4z m17 -18 c-3 -8 -6 -5 -6 6 -1
11 2 17 5 13 3 -3 4 -12 1 -19z m63 -8 c12 -7 10 -9 -8 -7 -12 0 -22 5 -22 9
0 11 12 10 30 -2z m168 -25 c2 -1 -4 -5 -12 -8 -8 -3 -22 1 -33 9 -17 13 -16
14 12 8 17 -4 31 -8 33 -9z m114 -47 c11 -9 13 -20 8 -38 -5 -16 -8 -19 -9 -8
-1 11 -7 15 -15 12 -18 -7 -28 9 -20 30 7 19 15 20 36 4z m-122 -8 c0 -5 7 -7
15 -4 8 4 15 1 15 -6 0 -8 -8 -10 -22 -6 -13 3 -27 6 -31 6 -5 0 -5 5 -2 10 8
13 25 13 25 0z"/>
<path d="M2856 6284 c-3 -9 -2 -23 3 -32 8 -13 10 -10 9 16 -1 36 -3 39 -12
16z"/>
<path d="M2905 6270 c3 -5 1 -10 -4 -10 -6 0 -11 -8 -11 -17 1 -16 2 -16 15 1
18 23 19 36 4 36 -5 0 -7 -4 -4 -10z"/>
<path d="M4457 5953 c-4 -3 -7 -13 -7 -22 0 -14 2 -14 10 -1 9 13 10 13 10 0
0 -13 2 -13 9 0 14 22 -4 41 -22 23z"/>
<path d="M4784 5915 c-7 -18 3 -35 21 -35 21 0 28 19 15 35 -16 19 -29 19 -36
0z m36 -11 c0 -2 -7 -4 -15 -4 -8 0 -15 4 -15 10 0 5 7 7 15 4 8 -4 15 -8 15
-10z"/>
<path d="M3445 5881 c3 -5 -3 -11 -12 -13 -16 -3 -15 -5 2 -9 16 -5 21 -1 22
12 1 11 -3 19 -8 19 -6 0 -8 -4 -4 -9z"/>
<path d="M4261 5853 c7 -12 15 -20 18 -17 3 2 -3 12 -13 22 -17 16 -18 16 -5
-5z"/>
<path d="M5080 5854 c-9 -10 -10 -18 -2 -26 12 -12 32 -2 32 17 0 21 -16 26
-30 9z"/>
<path d="M4220 5830 c0 -5 5 -10 10 -10 6 0 10 5 10 10 0 6 -4 10 -10 10 -5 0
-10 -4 -10 -10z"/>
<path d="M3398 5723 c7 -3 16 -2 19 1 4 3 -2 6 -13 5 -11 0 -14 -3 -6 -6z"/>
<path d="M7285 5610 c3 -5 8 -10 11 -10 2 0 4 5 4 10 0 6 -5 10 -11 10 -5 0
-7 -4 -4 -10z"/>
<path d="M7280 5505 c-17 -20 -5 -45 20 -45 11 0 23 7 26 15 6 15 -11 45 -26
45 -4 0 -13 -7 -20 -15z m26 -32 c-10 -10 -19 5 -10 18 6 11 8 11 12 0 2 -7 1
-15 -2 -18z"/>
<path d="M4096 5482 c-8 -14 -82 -386 -236 -1197 -33 -176 -63 -332 -66 -346
-5 -25 -4 -25 278 -108 156 -46 393 -116 528 -156 471 -141 563 -166 570 -158
11 11 61 245 55 251 -3 3 -5 -2 -5 -11 0 -26 -68 -95 -125 -128 -53 -31 -55
-40 -2 -13 18 9 50 33 71 53 24 22 37 29 32 18 -3 -10 -6 -22 -6 -27 0 -5 -27
-22 -59 -38 -72 -36 -183 -43 -250 -16 -103 41 -164 170 -162 343 1 112 9 161
26 161 9 0 10 -12 3 -52 -15 -79 -4 -223 22 -283 23 -55 70 -109 112 -131 15
-8 51 -14 81 -14 70 0 135 34 216 112 l59 58 47 217 c25 120 53 245 61 279 13
54 13 64 -1 90 -8 16 -15 34 -15 40 0 25 -82 103 -125 119 -107 41 -242 -33
-346 -193 -58 -88 -78 -140 -58 -153 26 -16 39 -9 60 34 55 109 138 187 214
201 56 11 117 -22 151 -80 23 -39 29 -62 32 -132 8 -158 -44 -299 -147 -394
-100 -93 -186 -99 -253 -17 -46 56 -65 183 -45 293 1 5 -9 12 -23 16 -25 7
-25 7 5 11 40 5 47 40 11 57 -24 11 -26 9 -34 -21 -5 -18 -12 -31 -18 -29 -13
5 -6 45 10 57 7 6 11 16 8 24 -8 25 79 179 138 244 144 157 307 174 414 44 20
-24 36 -51 36 -61 0 -9 4 -16 9 -16 5 0 18 48 29 108 12 59 46 221 77 361 30
140 54 255 53 256 -2 1 -39 10 -83 20 -44 9 -91 21 -105 26 -14 4 -43 11 -65
15 -22 3 -85 17 -140 31 -138 33 -411 97 -590 138 -179 40 -403 94 -427 101
-9 3 -19 1 -22 -4z m277 -200 c38 -9 68 -21 68 -25 -1 -4 -1 -16 -1 -28 0 -17
-5 -20 -32 -17 l-33 3 -35 -177 c-35 -182 -40 -193 -78 -169 -12 7 7 131 52
344 3 13 -3 19 -25 24 -29 5 -34 17 -23 47 8 20 22 20 107 -2z m367 -87 c4 -3
-19 -437 -23 -442 -1 -1 -14 1 -29 4 -25 5 -28 9 -28 48 0 36 -4 44 -22 49
-40 10 -46 7 -58 -29 -12 -36 -24 -42 -49 -26 -12 8 -4 40 47 184 34 97 67
188 72 202 9 25 14 27 48 20 20 -4 39 -8 42 -10z m328 -76 c66 -16 92 -43 92
-93 0 -56 -16 -110 -39 -130 -16 -14 -17 -22 -8 -46 8 -22 8 -45 -1 -88 -7
-32 -12 -68 -12 -80 0 -16 -6 -22 -24 -22 -39 0 -45 18 -28 99 14 70 14 75 -4
88 -32 23 -40 14 -53 -61 -17 -92 -21 -99 -55 -90 -22 5 -26 11 -22 28 3 11
21 100 41 196 43 208 44 210 56 210 6 0 31 -5 57 -11z m-831 -287 c20 -13 21
-76 1 -69 -7 2 -12 14 -10 25 2 14 -2 22 -11 22 -11 0 -19 -21 -28 -70 -12
-71 -10 -88 11 -75 8 5 10 21 7 41 -5 29 -3 34 15 34 18 0 20 -4 15 -40 -6
-47 -22 -70 -47 -70 -36 0 -44 25 -31 101 6 39 16 80 22 90 10 19 35 24 56 11z
m110 -27 c30 -8 19 -37 -12 -29 -17 4 -24 0 -28 -17 -7 -27 -1 -39 19 -39 9 0
14 -6 11 -12 -2 -7 -12 -13 -22 -13 -12 0 -21 -10 -26 -27 -8 -30 -3 -38 23
-38 10 0 18 -7 18 -16 0 -13 -7 -15 -37 -9 -21 4 -39 8 -41 9 -2 2 17 104 34
184 3 16 10 22 22 18 9 -2 27 -7 39 -11z m92 -21 c33 -7 43 -34 13 -34 -15 0
-21 -13 -32 -72 -16 -90 -19 -98 -36 -98 -10 0 -13 7 -9 23 28 119 32 156 19
161 -18 7 -18 26 0 26 7 0 28 -3 45 -6z"/>
<path d="M4643 5010 c-26 -74 -28 -90 -16 -94 36 -14 40 -7 48 85 3 50 5 92 3
94 -2 2 -18 -36 -35 -85z"/>
<path d="M5041 5022 c-25 -97 -25 -102 2 -102 34 0 46 19 49 75 3 41 0 48 -19
56 -20 7 -24 4 -32 -29z"/>
<path d="M5715 5440 c-12 -20 -73 -305 -67 -312 13 -12 275 -69 284 -60 4 4
17 48 27 97 11 50 26 118 34 152 9 35 12 65 7 68 -4 3 -61 16 -126 30 -66 14
-126 28 -136 31 -9 3 -19 0 -23 -6z m145 -76 c0 -2 -7 -4 -15 -4 -8 0 -15 4
-15 10 0 5 7 7 15 4 8 -4 15 -8 15 -10z m-113 -90 c-3 -3 -12 -4 -19 -1 -8 3
-5 6 6 6 11 1 17 -2 13 -5z m73 -14 c13 -8 13 -10 -2 -10 -9 0 -20 5 -23 10
-8 13 5 13 25 0z m27 -36 c-3 -3 -12 -4 -19 -1 -8 3 -5 6 6 6 11 1 17 -2 13
-5z m95 -23 c5 -4 -8 -5 -27 -3 -19 2 -38 9 -41 14 -7 11 56 1 68 -11z m-114
-66 c10 -10 -3 -13 -35 -8 -18 3 -33 10 -33 15 0 10 58 4 68 -7z"/>
<path d="M6910 5430 c0 -5 5 -10 11 -10 5 0 7 5 4 10 -3 6 -8 10 -11 10 -2 0
-4 -4 -4 -10z"/>
<path d="M7197 5434 c-15 -15 -7 -45 11 -42 9 2 17 12 17 22 0 20 -16 31 -28
20z m23 -24 c0 -5 -4 -10 -10 -10 -5 0 -10 5 -10 10 0 6 5 10 10 10 6 0 10 -4
10 -10z"/>
<path d="M7022 5417 c-15 -17 1 -42 23 -33 18 6 17 37 -1 43 -6 2 -16 -2 -22
-10z"/>
<path d="M7147 5393 c-13 -12 -7 -33 8 -33 8 0 15 9 15 20 0 20 -11 26 -23 13z"/>
<path d="M7310 5380 c0 -5 5 -10 10 -10 6 0 10 5 10 10 0 6 -4 10 -10 10 -5 0
-10 -4 -10 -10z"/>
<path d="M7270 5350 c0 -5 5 -10 10 -10 6 0 10 5 10 10 0 6 -4 10 -10 10 -5 0
-10 -4 -10 -10z"/>
<path d="M5632 5066 c-13 -17 -72 -300 -64 -308 14 -13 274 -70 282 -62 7 8
70 280 70 304 0 10 -24 17 -177 53 -75 18 -105 22 -111 13z m78 -61 c0 -8 -4
-15 -9 -15 -13 0 -22 16 -14 24 11 11 23 6 23 -9z m106 -51 c-8 -21 -17 -47
-20 -57 -3 -10 -10 -16 -15 -12 -11 6 11 79 31 102 17 21 19 10 4 -33z m41 -5
c1 -14 -7 -36 -18 -49 l-19 -25 4 45 c3 25 5 49 5 53 2 20 26 -2 28 -24z m-17
-91 c0 -6 -3 -8 -7 -5 -3 4 -12 -2 -20 -13 -15 -21 -33 -27 -33 -11 0 15 30
41 46 41 8 0 14 -5 14 -12z m-145 -79 c11 -11 -35 -3 -70 13 -13 5 -7 6 20 2
22 -3 45 -10 50 -15z"/>
<path d="M3272 5040 c0 -14 2 -19 5 -12 2 6 2 18 0 25 -3 6 -5 1 -5 -13z"/>
<path d="M3308 5028 c-2 -19 -8 -23 -32 -21 -31 2 -25 -11 11 -21 18 -6 22 -2
28 24 4 17 5 34 2 37 -3 2 -7 -6 -9 -19z"/>
<path d="M3250 4900 c0 -5 5 -10 10 -10 6 0 10 5 10 10 0 6 -4 10 -10 10 -5 0
-10 -4 -10 -10z"/>
<path d="M3203 4695 c4 -8 2 -17 -3 -20 -6 -4 -10 -13 -10 -21 0 -20 30 -17
31 4 0 9 2 25 4 35 2 10 -3 17 -12 17 -9 0 -13 -6 -10 -15z"/>
<path d="M3240 4670 c0 -5 5 -10 11 -10 5 0 7 5 4 10 -3 6 -8 10 -11 10 -2 0
-4 -4 -4 -10z"/>
<path d="M4991 4330 c-65 -48 -127 -154 -100 -171 21 -13 39 -11 39 6 0 8 17
32 38 55 45 47 95 55 127 20 26 -29 32 -119 11 -175 -61 -158 -199 -164 -197
-9 0 51 -1 54 -24 54 -31 0 -39 -29 -33 -115 23 -283 329 -144 346 157 8 134
-36 208 -123 208 -31 0 -53 -8 -84 -30z"/>
<path d="M4982 4158 c-16 -16 -15 -35 1 -41 7 -3 4 -6 -6 -6 -14 -1 -18 -8
-15 -33 2 -28 7 -33 28 -33 35 0 68 65 51 101 -11 26 -39 32 -59 12z"/>
<path d="M4867 4145 c-7 -16 1 -25 24 -25 28 0 31 16 5 28 -19 8 -25 8 -29 -3z"/>
<path d="M5440 4100 c0 -5 9 -10 21 -10 11 0 17 5 14 10 -3 6 -13 10 -21 10
-8 0 -14 -4 -14 -10z"/>
<path d="M5366 3861 c-3 -5 2 -18 12 -30 17 -20 17 -20 40 -1 12 10 19 21 15
23 -20 11 -62 16 -67 8z"/>
<path d="M5906 3832 c-3 -5 1 -9 9 -9 8 0 12 4 9 9 -3 4 -7 8 -9 8 -2 0 -6 -4
-9 -8z"/>
<path d="M5346 3762 c-3 -5 1 -18 9 -28 15 -18 15 -18 8 1 -6 19 -6 19 14 3
26 -24 35 -23 31 5 -2 15 -11 23 -30 25 -14 2 -29 -1 -32 -6z"/>
<path d="M5335 3620 c-8 -26 2 -40 11 -16 3 9 11 16 16 16 6 0 8 -7 4 -15 -3
-8 -1 -15 5 -15 6 0 9 10 7 22 -4 30 -34 35 -43 8z"/>
<path d="M5295 3510 c4 -6 11 -8 16 -5 14 9 11 15 -7 15 -8 0 -12 -5 -9 -10z"/>
<path d="M5338 3495 c2 -14 8 -25 13 -25 14 0 11 26 -5 39 -11 9 -12 6 -8 -14z"/>
<path d="M5290 3486 c0 -2 7 -9 15 -16 13 -11 14 -10 9 4 -5 14 -24 23 -24 12z"/>
<path d="M4980 3466 c0 -2 7 -7 16 -10 8 -3 12 -2 9 4 -6 10 -25 14 -25 6z"/>
<path d="M5265 3384 c-12 -18 -13 -29 -5 -44 12 -23 28 -25 53 -5 24 18 18 55
-10 66 -17 6 -25 3 -38 -17z"/>
<path d="M5234 3255 c-9 -38 15 -62 45 -43 32 19 25 62 -11 66 -22 3 -29 -2
-34 -23z"/>
</g>
</svg>
